M48
; DRILL file {KiCad 8.0.7-8.0.7-0~ubuntu22.04.1} date 2024-12-29T23:46:47+0000
; FORMAT={-:-/ absolute / metric / decimal}
; #@! TF.CreationDate,2024-12-29T23:46:47+00:00
; #@! TF.GenerationSoftware,Kicad,Pcbnew,8.0.7-8.0.7-0~ubuntu22.04.1
; #@! TF.FileFunction,MixedPlating,1,4
FMAT,2
METRIC
; #@! TA.AperFunction,Plated,PTH,ViaDrill
T1C0.300
; #@! TA.AperFunction,Plated,PTH,ViaDrill
T2C0.350
; #@! TA.AperFunction,Plated,PTH,ComponentDrill
T3C0.600
; #@! TA.AperFunction,Plated,PTH,ComponentDrill
T4C0.800
; #@! TA.AperFunction,Plated,PTH,ComponentDrill
T5C0.890
; #@! TA.AperFunction,Plated,PTH,ComponentDrill
T6C0.990
; #@! TA.AperFunction,Plated,PTH,ComponentDrill
T7C1.000
; #@! TA.AperFunction,Plated,PTH,ComponentDrill
T8C1.300
; #@! TA.AperFunction,Plated,PTH,ComponentDrill
T9C1.570
; #@! TA.AperFunction,Plated,PTH,ComponentDrill
T10C2.700
; #@! TA.AperFunction,NonPlated,NPTH,ComponentDrill
T11C0.650
; #@! TA.AperFunction,NonPlated,NPTH,ComponentDrill
T12C3.200
; #@! TA.AperFunction,NonPlated,NPTH,ComponentDrill
T13C3.250
%
G90
G05
T1
X91.01Y-74.55
X91.217Y-70.59
X91.258Y-69.713
X91.72Y-75.2
X92.43Y-77.959
X93.066Y-78.595
X98.1Y-65.2
X132.3Y-69.41
X137.4Y-68.2
X143.508Y-69.426
X143.614Y-68.268
X144.58Y-67.913
X144.77Y-64.375
X146.1Y-67.7
X146.37Y-66.72
X147.194Y-67.303
X147.9Y-66.928
X150.8Y-60.8
X157.69Y-70.44
X159.192Y-72.226
X159.243Y-71.427
X160.2Y-76.7
X160.269Y-64.621
X160.655Y-65.964
X160.871Y-64.019
X161.454Y-65.92
X162.0Y-63.0
X162.258Y-64.065
X162.258Y-64.915
X166.55Y-63.9
X167.3Y-69.2
X168.25Y-61.7
T2
X91.87Y-68.03
X93.0Y-73.405
X94.35Y-77.95
X94.61Y-72.55
X95.345Y-87.48
X95.345Y-88.445
X96.2Y-94.8
X96.5Y-92.84
X96.5Y-95.82
X98.0Y-74.505
X98.14Y-75.39
X98.15Y-70.54
X98.64Y-71.11
X99.13Y-76.85
X99.4Y-73.13
X99.97Y-64.42
X100.52Y-100.12
X100.53Y-98.38
X100.53Y-99.24
X100.53Y-100.91
X100.53Y-101.64
X100.53Y-102.46
X100.53Y-103.31
X100.53Y-104.18
X100.53Y-104.97
X100.53Y-105.81
X100.7Y-77.65
X100.7Y-78.4
X100.8Y-85.3
X100.841Y-79.178
X101.0Y-115.8
X101.0Y-116.7
X101.2Y-88.0
X101.62Y-76.78
X101.8Y-115.8
X101.8Y-116.7
X101.81Y-96.9
X101.855Y-82.658
X102.7Y-115.8
X102.7Y-116.7
X102.9Y-79.17
X103.6Y-115.8
X103.6Y-116.7
X103.8Y-69.2
X104.1Y-85.6
X104.615Y-86.905
X104.88Y-67.57
X104.9Y-113.2
X104.9Y-114.1
X104.9Y-115.0
X104.9Y-115.9
X104.9Y-116.7
X105.0Y-70.722
X105.181Y-86.339
X105.7Y-113.2
X105.7Y-114.1
X105.7Y-115.0
X105.7Y-115.9
X105.7Y-116.7
X105.8Y-70.7
X106.25Y-108.85
X106.26Y-102.821
X106.26Y-104.35
X106.26Y-105.1
X106.26Y-105.853
X106.26Y-106.601
X106.26Y-108.1
X106.26Y-103.574
X106.26Y-107.35
X106.5Y-86.4
X106.59Y-67.61
X106.6Y-113.2
X106.6Y-114.1
X106.6Y-115.0
X106.6Y-115.9
X106.6Y-116.7
X106.924Y-84.796
X107.01Y-102.85
X107.01Y-103.6
X107.01Y-104.35
X107.01Y-105.1
X107.01Y-105.85
X107.01Y-77.32
X107.01Y-106.6
X107.01Y-107.35
X107.01Y-108.1
X107.05Y-108.85
X107.3Y-90.5
X107.5Y-113.2
X107.5Y-114.1
X107.5Y-115.0
X107.5Y-115.9
X107.5Y-116.7
X107.76Y-102.85
X107.76Y-103.6
X107.76Y-104.35
X107.76Y-105.1
X107.76Y-105.85
X107.76Y-106.6
X108.2Y-67.625
X109.0Y-98.305
X109.0Y-102.56
X109.085Y-68.185
X109.67Y-62.895
X110.01Y-99.6
X110.01Y-101.2
X110.36Y-62.895
X110.71Y-99.6
X110.71Y-101.2
X111.2Y-62.895
X111.21Y-93.9
X111.51Y-99.6
X111.51Y-101.2
X112.345Y-100.438
X112.67Y-83.44
X112.69Y-73.0
X113.01Y-101.2
X113.085Y-99.7
X113.7Y-67.6
X114.01Y-99.7
X114.01Y-101.2
X114.5Y-67.6
X114.91Y-99.7
X114.91Y-101.2
X115.2Y-67.6
X115.71Y-101.2
X115.71Y-99.7
X116.6Y-68.11
X117.11Y-78.96
X117.4Y-68.11
X117.701Y-70.701
X117.75Y-107.45
X117.75Y-108.2
X117.75Y-108.95
X117.75Y-109.7
X117.75Y-110.45
X117.75Y-111.154
X117.75Y-111.95
X118.2Y-68.11
X118.45Y-107.46
X118.45Y-108.21
X118.45Y-108.96
X118.45Y-109.71
X118.45Y-110.46
X118.45Y-111.164
X118.45Y-111.96
X118.6Y-71.326
X119.094Y-72.056
X119.1Y-68.11
X119.2Y-72.798
X119.2Y-111.2
X119.25Y-110.45
X119.25Y-111.95
X119.25Y-107.45
X119.25Y-108.2
X119.25Y-108.95
X119.25Y-109.7
X120.0Y-107.45
X120.0Y-108.2
X120.0Y-108.95
X120.0Y-109.7
X120.0Y-110.45
X120.0Y-111.2
X120.0Y-111.95
X120.1Y-69.5
X120.594Y-71.021
X120.8Y-70.3
X120.8Y-72.0
X120.9Y-79.66
X121.998Y-69.2
X123.947Y-72.093
X124.3Y-66.598
X124.805Y-75.195
X126.4Y-66.598
X126.798Y-72.253
X126.8Y-75.4
X127.0Y-68.4
X127.98Y-62.52
X128.5Y-75.3
X128.74Y-62.52
X129.56Y-66.9
X129.97Y-62.86
X131.2Y-75.32
X132.23Y-68.18
X132.52Y-67.28
X132.8Y-71.975
X133.44Y-67.28
X134.75Y-75.5
X136.3Y-64.4
X137.37Y-67.31
X138.262Y-74.688
X141.48Y-63.625
X143.9Y-60.775
X145.6Y-69.8
X145.74Y-61.17
X146.7Y-70.1
X147.527Y-69.55
X148.2Y-68.925
X148.3Y-73.2
X148.4Y-70.825
X148.4Y-71.575
X148.4Y-72.425
X148.575Y-76.285
X149.16Y-75.71
X149.69Y-75.17
X149.77Y-60.825
X150.37Y-74.52
X151.27Y-74.4
X152.26Y-74.4
X156.77Y-68.12
X157.57Y-68.12
X160.777Y-67.327
X161.15Y-70.3
X161.47Y-68.807
X161.512Y-67.475
X161.9Y-70.3
X162.8Y-70.1
X162.95Y-72.7
X163.2Y-80.4
X163.8Y-72.7
X164.55Y-72.7
X164.82Y-66.61
X164.92Y-68.18
X165.8Y-80.85
X166.1Y-82.11
X166.2Y-73.2
X166.517Y-71.4
X166.7Y-80.85
X167.42Y-66.64
X167.43Y-68.07
X167.7Y-73.1
X167.755Y-71.47
X169.735Y-68.998
X170.2Y-67.4
X170.7Y-74.1
X170.735Y-71.048
X170.735Y-72.252
X170.955Y-69.048
X171.43Y-62.77
X171.43Y-64.29
T4
X88.77Y-63.01
X88.77Y-65.55
X96.39Y-63.01
X96.39Y-65.55
T5
X88.52Y-84.02
X88.52Y-86.052
X88.52Y-88.084
X88.52Y-90.116
X90.3Y-83.004
X90.3Y-85.036
X90.3Y-87.068
X90.3Y-89.1
X95.12Y-79.696
X95.12Y-81.986
X95.12Y-91.126
X95.12Y-93.416
X164.86Y-79.75
X164.86Y-82.04
X164.86Y-91.18
X164.86Y-93.47
X169.68Y-84.066
X169.68Y-86.098
X169.68Y-88.13
X169.68Y-90.162
X171.46Y-83.05
X171.46Y-85.082
X171.46Y-87.114
X171.46Y-89.146
T6
X82.81Y-69.65
X82.81Y-74.15
T7
X114.22Y-62.0
X116.76Y-62.0
X119.3Y-62.0
X121.84Y-62.0
X124.38Y-62.0
T8
X85.3Y-68.39
X85.3Y-75.4
T9
X89.41Y-78.426
X89.41Y-94.686
X170.57Y-78.48
X170.57Y-94.74
T10
X96.9Y-101.05
X96.9Y-108.25
X163.15Y-101.1
X163.15Y-108.3
T11
X173.23Y-68.51
X173.23Y-74.29
T12
X83.47Y-116.52
X83.52Y-63.52
X176.47Y-116.52
X176.5Y-63.5
T13
X85.98Y-80.206
X85.98Y-92.906
X174.0Y-80.26
X174.0Y-92.96
T3
X90.35Y-97.9G85X91.45Y-97.9
G05
X90.35Y-111.4G85X91.45Y-111.4
G05
X169.7Y-97.95G85X168.6Y-97.95
G05
X169.7Y-111.45G85X168.6Y-111.45
G05
X172.16Y-67.08G85X173.26Y-67.08
G05
X172.16Y-75.72G85X173.26Y-75.72
G05
X176.51Y-67.08G85X177.31Y-67.08
G05
X176.51Y-75.72G85X177.31Y-75.72
G05
M30
